<svg width="512" height="452" viewBox="0 0 512 452" fill="none" xmlns="http://www.w3.org/2000/svg">
<rect x="35" y="123.064" width="434" height="307.16" fill="white"/>
<rect x="25" y="23.012" width="461" height="90.0468" fill="#03D2FF"/>
<path d="M0 0V15.0668V135.601H22.588V452H489.412V135.6H496.941H512V0H0ZM459.294 421.866H52.706V128.067H459.294V421.866V421.866ZM481.882 105.467H474.352H459.293H52.706H30.118V30.1327H481.883V105.467H481.882Z" fill="black"/>
<path fill-rule="evenodd" clip-rule="evenodd" d="M253.107 400.482C281.855 297.865 281.021 297.401 301.802 224.233L306.799 227.113C309.514 228.679 311.737 227.399 311.737 224.276V189.383C317.251 170.104 321.573 155.207 322.839 150.728H345.353L382.754 185.314L358.191 206.503L376.764 226.549L254.349 400.482C253.751 401.464 252.917 401.24 253.107 400.482Z" fill="black"/>
<path fill-rule="evenodd" clip-rule="evenodd" d="M266.48 175.941C267.586 175.941 268.489 176.551 268.489 177.308V195.19C268.489 195.946 267.586 196.56 266.481 196.56H236.24C235.129 196.56 234.229 195.948 234.229 195.19V177.308C234.229 176.553 235.128 175.941 236.24 175.941H266.48Z" fill="black"/>
<path fill-rule="evenodd" clip-rule="evenodd" d="M303.806 156.141L270.538 175.311C270.924 175.897 271.159 176.572 271.159 177.309V195.192C271.159 196.119 270.799 196.956 270.205 197.631L303.806 216.994C306.096 218.314 307.975 217.234 307.975 214.597V158.541C307.975 155.901 306.097 154.824 303.806 156.141V156.141ZM231.557 195.19V177.308C231.557 176.576 231.792 175.901 232.173 175.315L198.906 156.141C196.617 154.824 194.74 155.901 194.74 158.541V214.596C194.74 217.233 196.614 218.315 198.906 216.991L232.505 197.626C231.914 196.951 231.556 196.116 231.556 195.188L231.557 195.19Z" fill="black"/>
<path fill-rule="evenodd" clip-rule="evenodd" d="M249.405 400.482H250.647C221.903 297.865 222.731 297.401 201.952 224.233L196.954 227.113C194.24 228.679 192.017 227.399 192.017 224.276V189.383C186.501 170.104 182.182 155.207 180.912 150.728H158.4L121 185.314L145.561 206.503L126.987 226.549L249.405 400.482Z" fill="black"/>
<path d="M251.526 237.254C256.54 237.254 260.606 233.196 260.606 228.191C260.606 223.185 256.54 219.127 251.526 219.127C246.511 219.127 242.446 223.185 242.446 228.191C242.446 233.196 246.511 237.254 251.526 237.254Z" fill="black"/>
<path d="M251.526 291.147C256.54 291.147 260.606 287.089 260.606 282.083C260.606 277.078 256.54 273.02 251.526 273.02C246.511 273.02 242.446 277.078 242.446 282.083C242.446 287.089 246.511 291.147 251.526 291.147Z" fill="black"/>
<path d="M251.526 345.047C256.54 345.047 260.605 340.989 260.605 335.983C260.605 330.978 256.54 326.92 251.526 326.92C246.511 326.92 242.446 330.978 242.446 335.983C242.446 340.989 246.511 345.047 251.526 345.047Z" fill="black"/>
</svg>
